<mxfile host="app.diagrams.net" modified="2024-03-27T17:18:02.043Z" agent="Mozilla/5.0 (Windows NT 10.0; Win64; x64) AppleWebKit/537.36 (KHTML, like Gecko) Chrome/122.0.0.0 Safari/537.36 Edg/122.0.0.0" version="22.1.18" etag="Z9zMvQH-CzZqD6V4a7f4" type="github">
  <diagram name="Strona-1" id="tzSReD9-yl2NLAFMdKlJ">
    <mxGraphModel>
      <root>
        <mxCell id="0" />
        <mxCell id="1" parent="0" />
      </root>
    </mxGraphModel>
  </diagram>
</mxfile>
